<mxfile host="app.diagrams.net" agent="Mozilla/5.0 (Macintosh; Intel Mac OS X 10_15_7) AppleWebKit/605.1.15 (KHTML, like Gecko) Version/15.6 Safari/605.1.15" version="26.0.10">
  <diagram name="Page-1" id="xY8BbDD6V1Xm8JZrcFOM">
    <mxGraphModel dx="1397" dy="1007" grid="1" gridSize="10" guides="1" tooltips="1" connect="1" arrows="1" fold="1" page="1" pageScale="1" pageWidth="827" pageHeight="1169" math="1" shadow="0">
      <root>
        <mxCell id="0" />
        <mxCell id="1" parent="0" />
        <mxCell id="z2Lx5dUMqIKF2mfZhz_8-2" value="\(x_0\)" style="ellipse;whiteSpace=wrap;html=1;aspect=fixed;fontSize=28;labelBackgroundColor=none;fillColor=#0066CC;fontColor=#FFFFFF;" parent="1" vertex="1">
          <mxGeometry x="173" y="30" width="80" height="80" as="geometry" />
        </mxCell>
        <mxCell id="z2Lx5dUMqIKF2mfZhz_8-3" value="\(x_1\)" style="ellipse;whiteSpace=wrap;html=1;aspect=fixed;fontSize=28;labelBackgroundColor=none;fillColor=#0066CC;fontColor=#FFFFFF;" parent="1" vertex="1">
          <mxGeometry x="173" y="160" width="80" height="80" as="geometry" />
        </mxCell>
        <mxCell id="z2Lx5dUMqIKF2mfZhz_8-8" value="\(z_0\)" style="whiteSpace=wrap;html=1;aspect=fixed;fontSize=28;fontColor=#FFFFFF;strokeColor=#99004D;fillColor=#FF3399;" parent="1" vertex="1">
          <mxGeometry x="573" y="180" width="80" height="80" as="geometry" />
        </mxCell>
        <mxCell id="z2Lx5dUMqIKF2mfZhz_8-11" value="\(x_2\)" style="ellipse;whiteSpace=wrap;html=1;aspect=fixed;fontSize=28;labelBackgroundColor=none;fillColor=#0066CC;fontColor=#FFFFFF;" parent="1" vertex="1">
          <mxGeometry x="173" y="310" width="80" height="80" as="geometry" />
        </mxCell>
        <mxCell id="z2Lx5dUMqIKF2mfZhz_8-12" value="\(x_3\)" style="ellipse;whiteSpace=wrap;html=1;aspect=fixed;fontSize=28;labelBackgroundColor=none;fillColor=#0066CC;fontColor=#FFFFFF;" parent="1" vertex="1">
          <mxGeometry x="173" y="455" width="80" height="80" as="geometry" />
        </mxCell>
        <mxCell id="z2Lx5dUMqIKF2mfZhz_8-13" value="\(x_4\)" style="ellipse;whiteSpace=wrap;html=1;aspect=fixed;fontSize=28;labelBackgroundColor=none;fillColor=#0066CC;fontColor=#FFFFFF;" parent="1" vertex="1">
          <mxGeometry x="173" y="610" width="80" height="80" as="geometry" />
        </mxCell>
        <mxCell id="z2Lx5dUMqIKF2mfZhz_8-14" value="\(x_5\)" style="ellipse;whiteSpace=wrap;html=1;aspect=fixed;fontSize=28;labelBackgroundColor=none;fillColor=#0066CC;fontColor=#FFFFFF;" parent="1" vertex="1">
          <mxGeometry x="173" y="760" width="80" height="80" as="geometry" />
        </mxCell>
        <mxCell id="z2Lx5dUMqIKF2mfZhz_8-15" style="edgeStyle=orthogonalEdgeStyle;rounded=0;orthogonalLoop=1;jettySize=auto;html=1;exitX=0.5;exitY=1;exitDx=0;exitDy=0;fontColor=#FFFFFF;endArrow=none;startFill=0;" parent="1" source="z2Lx5dUMqIKF2mfZhz_8-14" target="z2Lx5dUMqIKF2mfZhz_8-14" edge="1">
          <mxGeometry relative="1" as="geometry" />
        </mxCell>
        <mxCell id="z2Lx5dUMqIKF2mfZhz_8-17" value="\(z_1\)" style="whiteSpace=wrap;html=1;aspect=fixed;fontSize=28;fontColor=#FFFFFF;strokeColor=#99004D;fillColor=#FF3399;" parent="1" vertex="1">
          <mxGeometry x="573" y="360" width="80" height="80" as="geometry" />
        </mxCell>
        <mxCell id="z2Lx5dUMqIKF2mfZhz_8-18" value="\(z_2\)" style="whiteSpace=wrap;html=1;aspect=fixed;fontSize=28;fontColor=#FFFFFF;strokeColor=#99004D;fillColor=#FF3399;" parent="1" vertex="1">
          <mxGeometry x="573" y="560" width="80" height="80" as="geometry" />
        </mxCell>
        <mxCell id="z2Lx5dUMqIKF2mfZhz_8-20" value="" style="endArrow=none;html=1;rounded=0;exitX=1;exitY=0.5;exitDx=0;exitDy=0;entryX=0;entryY=0.5;entryDx=0;entryDy=0;startFill=0;endFill=0;strokeWidth=1;strokeColor=#000000;dashed=1;dashPattern=8 8;" parent="1" source="z2Lx5dUMqIKF2mfZhz_8-2" target="z2Lx5dUMqIKF2mfZhz_8-8" edge="1">
          <mxGeometry width="50" height="50" relative="1" as="geometry">
            <mxPoint x="273" y="510" as="sourcePoint" />
            <mxPoint x="323" y="460" as="targetPoint" />
          </mxGeometry>
        </mxCell>
        <mxCell id="z2Lx5dUMqIKF2mfZhz_8-21" value="" style="endArrow=none;html=1;rounded=0;exitX=1;exitY=0.5;exitDx=0;exitDy=0;startFill=0;" parent="1" source="z2Lx5dUMqIKF2mfZhz_8-12" edge="1">
          <mxGeometry width="50" height="50" relative="1" as="geometry">
            <mxPoint x="264" y="190" as="sourcePoint" />
            <mxPoint x="573" y="220" as="targetPoint" />
          </mxGeometry>
        </mxCell>
        <mxCell id="z2Lx5dUMqIKF2mfZhz_8-22" value="" style="endArrow=none;html=1;rounded=0;exitX=1;exitY=0.5;exitDx=0;exitDy=0;entryX=-0.012;entryY=0.535;entryDx=0;entryDy=0;entryPerimeter=0;startFill=0;endFill=0;strokeWidth=1;strokeColor=#000000;dashed=1;dashPattern=8 8;" parent="1" source="z2Lx5dUMqIKF2mfZhz_8-13" target="z2Lx5dUMqIKF2mfZhz_8-8" edge="1">
          <mxGeometry width="50" height="50" relative="1" as="geometry">
            <mxPoint x="263" y="505" as="sourcePoint" />
            <mxPoint x="543" y="350" as="targetPoint" />
          </mxGeometry>
        </mxCell>
        <mxCell id="z2Lx5dUMqIKF2mfZhz_8-23" value="" style="endArrow=none;html=1;rounded=0;entryX=0;entryY=0.5;entryDx=0;entryDy=0;exitX=1;exitY=0.5;exitDx=0;exitDy=0;startFill=0;strokeColor=none;strokeWidth=1;endFill=1;dashed=1;dashPattern=8 8;" parent="1" source="z2Lx5dUMqIKF2mfZhz_8-14" target="z2Lx5dUMqIKF2mfZhz_8-8" edge="1">
          <mxGeometry width="50" height="50" relative="1" as="geometry">
            <mxPoint x="303" y="740" as="sourcePoint" />
            <mxPoint x="603" y="250" as="targetPoint" />
          </mxGeometry>
        </mxCell>
        <mxCell id="z2Lx5dUMqIKF2mfZhz_8-24" value="" style="endArrow=none;html=1;rounded=0;exitX=1;exitY=0.5;exitDx=0;exitDy=0;entryX=0;entryY=0.5;entryDx=0;entryDy=0;startFill=0;endFill=0;strokeWidth=1;strokeColor=#000000;dashed=1;dashPattern=8 8;" parent="1" source="z2Lx5dUMqIKF2mfZhz_8-3" target="z2Lx5dUMqIKF2mfZhz_8-17" edge="1">
          <mxGeometry width="50" height="50" relative="1" as="geometry">
            <mxPoint x="253" y="200" as="sourcePoint" />
            <mxPoint x="573" y="350" as="targetPoint" />
          </mxGeometry>
        </mxCell>
        <mxCell id="z2Lx5dUMqIKF2mfZhz_8-27" value="" style="endArrow=none;html=1;rounded=0;entryX=0;entryY=0.5;entryDx=0;entryDy=0;exitX=1;exitY=0.5;exitDx=0;exitDy=0;startFill=0;" parent="1" source="z2Lx5dUMqIKF2mfZhz_8-12" target="z2Lx5dUMqIKF2mfZhz_8-17" edge="1">
          <mxGeometry width="50" height="50" relative="1" as="geometry">
            <mxPoint x="283" y="410" as="sourcePoint" />
            <mxPoint x="593" y="240" as="targetPoint" />
          </mxGeometry>
        </mxCell>
        <mxCell id="z2Lx5dUMqIKF2mfZhz_8-28" value="" style="endArrow=none;html=1;rounded=0;exitX=1;exitY=0.5;exitDx=0;exitDy=0;entryX=0;entryY=0.5;entryDx=0;entryDy=0;startFill=0;strokeColor=none;strokeWidth=1;endFill=1;dashed=1;dashPattern=8 8;" parent="1" source="z2Lx5dUMqIKF2mfZhz_8-14" target="z2Lx5dUMqIKF2mfZhz_8-17" edge="1">
          <mxGeometry width="50" height="50" relative="1" as="geometry">
            <mxPoint x="283" y="100" as="sourcePoint" />
            <mxPoint x="603" y="250" as="targetPoint" />
          </mxGeometry>
        </mxCell>
        <mxCell id="z2Lx5dUMqIKF2mfZhz_8-29" value="" style="endArrow=none;html=1;rounded=0;exitX=1;exitY=0.5;exitDx=0;exitDy=0;entryX=0;entryY=0.5;entryDx=0;entryDy=0;startFill=0;endFill=0;strokeWidth=1;strokeColor=#000000;dashed=1;dashPattern=8 8;" parent="1" source="z2Lx5dUMqIKF2mfZhz_8-11" target="z2Lx5dUMqIKF2mfZhz_8-18" edge="1">
          <mxGeometry width="50" height="50" relative="1" as="geometry">
            <mxPoint x="293" y="110" as="sourcePoint" />
            <mxPoint x="613" y="260" as="targetPoint" />
          </mxGeometry>
        </mxCell>
        <mxCell id="z2Lx5dUMqIKF2mfZhz_8-30" value="" style="endArrow=none;html=1;rounded=0;exitX=1;exitY=0.5;exitDx=0;exitDy=0;startFill=0;endFill=0;strokeWidth=1;strokeColor=#000000;dashed=1;dashPattern=8 8;" parent="1" source="z2Lx5dUMqIKF2mfZhz_8-13" edge="1">
          <mxGeometry width="50" height="50" relative="1" as="geometry">
            <mxPoint x="263" y="360" as="sourcePoint" />
            <mxPoint x="573" y="600" as="targetPoint" />
          </mxGeometry>
        </mxCell>
        <mxCell id="z2Lx5dUMqIKF2mfZhz_8-31" value="" style="endArrow=none;html=1;rounded=0;entryX=0;entryY=0.5;entryDx=0;entryDy=0;startFill=0;startArrow=classicThin;strokeWidth=1;strokeColor=#000000;dashed=1;dashPattern=8 8;" parent="1" target="z2Lx5dUMqIKF2mfZhz_8-18" edge="1">
          <mxGeometry width="50" height="50" relative="1" as="geometry">
            <mxPoint x="253" y="800" as="sourcePoint" />
            <mxPoint x="593" y="620" as="targetPoint" />
          </mxGeometry>
        </mxCell>
        <mxCell id="z2Lx5dUMqIKF2mfZhz_8-32" value="&lt;span style=&quot;color: rgb(0, 0, 0); font-family: Helvetica; font-size: 28px; font-style: normal; font-variant-ligatures: normal; font-variant-caps: normal; font-weight: 400; letter-spacing: normal; orphans: 2; text-align: center; text-indent: 0px; text-transform: none; widows: 2; word-spacing: 0px; -webkit-text-stroke-width: 0px; white-space: normal; background-color: rgb(251, 251, 251); text-decoration-thickness: initial; text-decoration-style: initial; text-decoration-color: initial; display: inline !important; float: none;&quot;&gt;\(1\)&lt;/span&gt;" style="text;whiteSpace=wrap;html=1;" parent="1" vertex="1">
          <mxGeometry x="113" y="40" width="60" height="60" as="geometry" />
        </mxCell>
        <mxCell id="z2Lx5dUMqIKF2mfZhz_8-33" value="&lt;span style=&quot;color: rgb(0, 0, 0); font-family: Helvetica; font-size: 28px; font-style: normal; font-variant-ligatures: normal; font-variant-caps: normal; font-weight: 400; letter-spacing: normal; orphans: 2; text-align: center; text-indent: 0px; text-transform: none; widows: 2; word-spacing: 0px; -webkit-text-stroke-width: 0px; white-space: normal; background-color: rgb(251, 251, 251); text-decoration-thickness: initial; text-decoration-style: initial; text-decoration-color: initial; display: inline !important; float: none;&quot;&gt;\(0\)&lt;/span&gt;" style="text;whiteSpace=wrap;html=1;" parent="1" vertex="1">
          <mxGeometry x="113" y="170" width="60" height="60" as="geometry" />
        </mxCell>
        <mxCell id="z2Lx5dUMqIKF2mfZhz_8-34" value="&lt;span style=&quot;color: rgb(0, 0, 0); font-family: Helvetica; font-size: 28px; font-style: normal; font-variant-ligatures: normal; font-variant-caps: normal; font-weight: 400; letter-spacing: normal; orphans: 2; text-align: center; text-indent: 0px; text-transform: none; widows: 2; word-spacing: 0px; -webkit-text-stroke-width: 0px; white-space: normal; background-color: rgb(251, 251, 251); text-decoration-thickness: initial; text-decoration-style: initial; text-decoration-color: initial; display: inline !important; float: none;&quot;&gt;\(0\)&lt;/span&gt;" style="text;whiteSpace=wrap;html=1;" parent="1" vertex="1">
          <mxGeometry x="113" y="330" width="60" height="60" as="geometry" />
        </mxCell>
        <mxCell id="z2Lx5dUMqIKF2mfZhz_8-35" value="&lt;span style=&quot;color: rgb(0, 0, 0); font-family: Helvetica; font-size: 28px; font-style: normal; font-variant-ligatures: normal; font-variant-caps: normal; font-weight: 400; letter-spacing: normal; orphans: 2; text-align: center; text-indent: 0px; text-transform: none; widows: 2; word-spacing: 0px; -webkit-text-stroke-width: 0px; white-space: normal; background-color: rgb(251, 251, 251); text-decoration-thickness: initial; text-decoration-style: initial; text-decoration-color: initial; display: inline !important; float: none;&quot;&gt;\(?\)&lt;/span&gt;" style="text;whiteSpace=wrap;html=1;" parent="1" vertex="1">
          <mxGeometry x="113" y="475" width="60" height="60" as="geometry" />
        </mxCell>
        <mxCell id="z2Lx5dUMqIKF2mfZhz_8-36" value="&lt;span style=&quot;color: rgb(0, 0, 0); font-family: Helvetica; font-size: 28px; font-style: normal; font-variant-ligatures: normal; font-variant-caps: normal; font-weight: 400; letter-spacing: normal; orphans: 2; text-align: center; text-indent: 0px; text-transform: none; widows: 2; word-spacing: 0px; -webkit-text-stroke-width: 0px; white-space: normal; background-color: rgb(251, 251, 251); text-decoration-thickness: initial; text-decoration-style: initial; text-decoration-color: initial; display: inline !important; float: none;&quot;&gt;\(1\)&lt;/span&gt;" style="text;whiteSpace=wrap;html=1;" parent="1" vertex="1">
          <mxGeometry x="113" y="630" width="60" height="60" as="geometry" />
        </mxCell>
        <mxCell id="z2Lx5dUMqIKF2mfZhz_8-37" value="&lt;span style=&quot;color: rgb(0, 0, 0); font-family: Helvetica; font-size: 28px; font-style: normal; font-variant-ligatures: normal; font-variant-caps: normal; font-weight: 400; letter-spacing: normal; orphans: 2; text-align: center; text-indent: 0px; text-transform: none; widows: 2; word-spacing: 0px; -webkit-text-stroke-width: 0px; white-space: normal; background-color: rgb(251, 251, 251); text-decoration-thickness: initial; text-decoration-style: initial; text-decoration-color: initial; display: inline !important; float: none;&quot;&gt;\(1\)&lt;/span&gt;" style="text;whiteSpace=wrap;html=1;" parent="1" vertex="1">
          <mxGeometry x="113" y="780" width="60" height="60" as="geometry" />
        </mxCell>
        <mxCell id="eWXnosKMueIWFYS_WKOG-1" value="&lt;span style=&quot;color: rgb(0, 0, 0); font-family: Helvetica; font-size: 28px; font-style: normal; font-variant-ligatures: normal; font-variant-caps: normal; font-weight: 400; letter-spacing: normal; orphans: 2; text-align: center; text-indent: 0px; text-transform: none; widows: 2; word-spacing: 0px; -webkit-text-stroke-width: 0px; white-space: normal; background-color: rgb(251, 251, 251); text-decoration-thickness: initial; text-decoration-style: initial; text-decoration-color: initial; display: inline !important; float: none;&quot;&gt;\(1\)&lt;/span&gt;" style="text;whiteSpace=wrap;html=1;" vertex="1" parent="1">
          <mxGeometry x="700" y="200" width="60" height="60" as="geometry" />
        </mxCell>
        <mxCell id="eWXnosKMueIWFYS_WKOG-2" value="&lt;span style=&quot;color: rgb(0, 0, 0); font-family: Helvetica; font-size: 28px; font-style: normal; font-variant-ligatures: normal; font-variant-caps: normal; font-weight: 400; letter-spacing: normal; orphans: 2; text-align: center; text-indent: 0px; text-transform: none; widows: 2; word-spacing: 0px; -webkit-text-stroke-width: 0px; white-space: normal; background-color: rgb(251, 251, 251); text-decoration-thickness: initial; text-decoration-style: initial; text-decoration-color: initial; display: inline !important; float: none;&quot;&gt;\(1\)&lt;/span&gt;" style="text;whiteSpace=wrap;html=1;" vertex="1" parent="1">
          <mxGeometry x="700" y="370" width="60" height="60" as="geometry" />
        </mxCell>
        <mxCell id="eWXnosKMueIWFYS_WKOG-3" value="&lt;span style=&quot;color: rgb(0, 0, 0); font-family: Helvetica; font-size: 28px; font-style: normal; font-variant-ligatures: normal; font-variant-caps: normal; font-weight: 400; letter-spacing: normal; orphans: 2; text-align: center; text-indent: 0px; text-transform: none; widows: 2; word-spacing: 0px; -webkit-text-stroke-width: 0px; white-space: normal; background-color: rgb(251, 251, 251); text-decoration-thickness: initial; text-decoration-style: initial; text-decoration-color: initial; display: inline !important; float: none;&quot;&gt;\(0\)&lt;/span&gt;" style="text;whiteSpace=wrap;html=1;" vertex="1" parent="1">
          <mxGeometry x="700" y="580" width="70" height="60" as="geometry" />
        </mxCell>
        <mxCell id="eWXnosKMueIWFYS_WKOG-12" value="&lt;span style=&quot;color: rgb(0, 0, 0); font-family: Helvetica; font-size: 28px; font-style: normal; font-variant-ligatures: normal; font-variant-caps: normal; font-weight: 400; letter-spacing: normal; orphans: 2; text-align: center; text-indent: 0px; text-transform: none; widows: 2; word-spacing: 0px; -webkit-text-stroke-width: 0px; white-space: normal; background-color: rgb(251, 251, 251); text-decoration-thickness: initial; text-decoration-style: initial; text-decoration-color: initial; display: inline !important; float: none;&quot;&gt;\(1\)&lt;/span&gt;" style="text;whiteSpace=wrap;html=1;" vertex="1" parent="1">
          <mxGeometry x="280" y="650" width="60" height="60" as="geometry" />
        </mxCell>
        <mxCell id="eWXnosKMueIWFYS_WKOG-13" value="&lt;span style=&quot;color: rgb(0, 0, 0); font-family: Helvetica; font-size: 28px; font-style: normal; font-variant-ligatures: normal; font-variant-caps: normal; font-weight: 400; letter-spacing: normal; orphans: 2; text-align: center; text-indent: 0px; text-transform: none; widows: 2; word-spacing: 0px; -webkit-text-stroke-width: 0px; white-space: normal; background-color: rgb(251, 251, 251); text-decoration-thickness: initial; text-decoration-style: initial; text-decoration-color: initial; display: inline !important; float: none;&quot;&gt;\(1\)&lt;/span&gt;" style="text;whiteSpace=wrap;html=1;" vertex="1" parent="1">
          <mxGeometry x="360" y="670" width="60" height="60" as="geometry" />
        </mxCell>
      </root>
    </mxGraphModel>
  </diagram>
</mxfile>
